<?xml version="1.0" encoding="utf-8"?>
<!-- Generator: Adobe Illustrator 21.0.0, SVG Export Plug-In . SVG Version: 6.00 Build 0)  -->
<svg version="1.1" id="Ebene_1" xmlns="http://www.w3.org/2000/svg" xmlns:xlink="http://www.w3.org/1999/xlink" x="0px" y="0px"
	 viewBox="0 0 711 103" style="enable-background:new 0 0 711 103;" xml:space="preserve">
<style type="text/css">
	.st0{display:none;}
	.st1{display:inline;}
	.st2{fill:#432E36;}
	.st3{fill:#FFFFFF;}
</style>
<g>
	<path d="M73.7,86.6C69.1,90,62.9,92,55.1,92.7c-0.9,0.1-1.9,0.1-2.9,0.2C51.1,93,50,93,48.9,93c-13.2,0-24-4.2-32.3-12.5
		C8.2,72.1,4,61.3,4,48.1c0-13.2,4.2-24,12.5-32.3C24.9,7.4,35.7,3.2,48.9,3.2c7.5,0,14.3,1.1,20.3,3.3c3.6,1.4,7.1,3.4,10.4,6v6.2
		c-3.4-2.9-7.2-5.1-11.3-6.9c-6.2-2.5-12.7-3.8-19.5-3.8c-11.6,0-21.1,3.8-28.6,11.3C12.7,26.8,9,36.4,9,48.1
		c0,11.7,3.7,21.2,11.1,28.6C27.6,84.2,37.2,88,48.9,88c7.3,0,13.6-1.3,19-3.9c3.1-1.5,7-4,11.7-7.5v5.8L73.7,86.6z"/>
	<path d="M146,91.7l-10-26.2H96.2L86.1,91.7h-4.9L116,1.6l35,90.2H146z M116,14.3L98.2,60.6h35.7L116,14.3z"/>
	<path d="M200.6,91.7l-27.8-43.7h-9.4v43.7h-4.9V4.4h20.2c3.3,0,6.4,0.5,9.3,1.4c2.9,0.9,5.5,2.3,7.6,4.2c2.1,1.8,3.8,4.1,5.1,6.8
		c1.3,2.7,1.9,5.8,1.9,9.3c0,3.8-0.6,7.1-1.8,9.9c-1.2,2.8-2.9,5.1-5,6.9c-2.2,1.8-4.7,3.1-7.6,4c-2.9,0.9-6.2,1.3-9.7,1.3l28,43.7
		H200.6z M195.9,18.7c-1-2.1-2.3-3.8-4-5.1s-3.7-2.4-6-3.1c-2.3-0.7-4.7-1-7.3-1h-15.2v33.6h16.5c5.2,0,9.4-1.5,12.7-4.4
		c3.2-2.9,4.8-7.2,4.8-12.7C197.4,23.2,196.9,20.7,195.9,18.7z"/>
	<path d="M232.7,9.4v82.3h-5V9.4h-19.3v-5h43.7v5H232.7z"/>
	<path d="M325,80.4c-8.4,8.4-19.2,12.6-32.4,12.6c-13.2,0-24-4.2-32.3-12.5c-8.4-8.4-12.6-19.2-12.6-32.4c0-13.2,4.2-24,12.5-32.3
		c8.4-8.4,19.2-12.6,32.4-12.6c13.1,0,23.9,4.2,32.4,12.5c8.4,8.4,12.6,19.2,12.6,32.4C337.6,61.3,333.4,72.1,325,80.4z M321.4,19.3
		c-7.5-7.5-17.1-11.3-28.9-11.3c-11.6,0-21.1,3.8-28.6,11.3c-7.5,7.5-11.3,17.1-11.3,28.7c0,11.7,3.7,21.2,11.1,28.6
		c7.5,7.5,17.1,11.3,28.7,11.3c11.7,0,21.4-3.7,28.9-11c7.4-7.4,11.1-17,11.1-28.9C332.6,36.3,328.9,26.7,321.4,19.3z"/>
	<path d="M380.8,91c-3.2,1.1-6.9,1.7-11.3,1.7c-13.4,0-22-6.3-25.8-19l5-1.7c2.9,10.4,9.8,15.7,20.8,15.7c6.3,0,11.2-1.5,14.8-4.6
		c3.7-3.2,5.5-7.8,5.5-13.9c0-5.8-2.2-10.6-6.5-14.4c-1.1-1.1-2.9-2.2-5.3-3.5c-2.4-1.3-5.4-2.8-9.1-4.4c-6.9-3.1-11.7-5.8-14.2-8.1
		c-4.2-3.7-6.4-8.5-6.4-14.6c0-6,2.2-10.9,6.5-14.6c4.2-3.8,9.5-5.6,15.7-5.6c10.3,0,17.5,3.8,21.8,11.5l-4.8,2.1
		c-1.6-2.7-3.6-4.7-5.9-6c-2.9-1.8-6.6-2.7-11.1-2.7c-4.8,0-8.8,1.3-12,4c-3.4,2.9-5.1,6.6-5.1,11.3c0,4.2,1.8,7.8,5.4,10.9
		c2,1.6,6.1,3.8,12.2,6.6c3.8,1.7,7.1,3.4,9.9,5.1c2.8,1.7,5,3.4,6.7,5.1c4.7,4.6,7.1,10.4,7.1,17.4C394.8,80.2,390.2,87.5,380.8,91
		z"/>
	<path d="M476.9,80.4c-8.4,8.4-19.2,12.6-32.4,12.6c-13.2,0-24-4.2-32.3-12.5c-8.4-8.4-12.6-19.2-12.6-32.4c0-13.2,4.2-24,12.5-32.3
		c8.4-8.4,19.2-12.6,32.4-12.6c13.1,0,23.9,4.2,32.4,12.5c8.4,8.4,12.6,19.2,12.6,32.4C489.5,61.3,485.3,72.1,476.9,80.4z
		 M473.4,19.3c-7.5-7.5-17.1-11.3-28.9-11.3c-11.6,0-21.1,3.8-28.6,11.3c-7.5,7.5-11.3,17.1-11.3,28.7c0,11.7,3.7,21.2,11.1,28.6
		c7.5,7.5,17.1,11.3,28.7,11.3c11.7,0,21.4-3.7,28.9-11c7.4-7.4,11.1-17,11.1-28.9C484.5,36.3,480.8,26.7,473.4,19.3z"/>
	<path d="M546.3,87c-4.5,3.8-10.4,5.6-17.7,5.6c-7.1,0-13-1.9-17.7-5.8c-5-4.2-7.5-9.8-7.5-16.9V4.4h4.9V70c0,5.6,2,10,6.1,13.2
		c3.8,2.9,8.5,4.4,14.2,4.4c5.6,0,10.4-1.5,14.2-4.5c4.2-3.3,6.2-7.6,6.2-13.1V4.4h5V70C554,77.1,551.4,82.7,546.3,87z"/>
	<path d="M626.8,91.7l-10-26.2H577l-10.2,26.2H562l34.9-90.2l35,90.2H626.8z M596.8,14.3L579,60.6h35.7L596.8,14.3z"/>
	<path d="M697.1,78.5c-7.3,8.8-16.9,13.2-28.7,13.2h-29.1V4.4h29.1c11.7,0,21.3,4.4,28.6,13.2c6.9,8.2,10.4,18.4,10.4,30.3
		C707.4,60,704,70.2,697.1,78.5z M693.5,21c-6.4-7.8-14.7-11.7-25.1-11.7h-24.2v77.4h24.2c9,0,16.8-3.3,23.4-10
		c7.1-7.2,10.6-16.8,10.6-28.7C702.4,37.3,699.4,28.3,693.5,21z"/>
</g>
<g class="st0">
	<path class="st1" d="M465,16.6c15.6,0,28.2,15,28.2,33.3S480.6,83.3,465,83.3s-28.2-15-28.2-33.3S449.5,16.6,465,16.6 M465,6.6
		c-21.1,0-38.2,19.4-38.2,43.3s17.1,43.3,38.2,43.3s38.2-19.4,38.2-43.3S486.1,6.6,465,6.6L465,6.6z"/>
</g>
<g>
	<g>
		<path class="st2" d="M489.2,99.1c-0.5,0-1.1-0.1-1.6-0.3l-41.6-16.4c-1.2-0.5-2-1.5-2.3-2.7c-0.2-1.1,0.1-2.2,0.9-3l27.1-26.8
			c0.6-0.6,1.4-0.9,2.2-0.9c1.5,0,2.9,1,3.4,2.4l15.9,41.8c0.5,1.3,0.3,2.8-0.5,3.9C491.9,98.4,490.6,99.1,489.2,99.1z"/>
		<path class="st3" d="M473.9,51.6c0.4,0,0.9,0.3,1.1,0.8l8.4,22l7.5,19.8c0.5,1.2-0.5,2.4-1.7,2.4c-0.2,0-0.4,0-0.7-0.1l-19.7-7.7
			L447,80.2c-0.7-0.3-1-1.1-0.6-1.6l13.5-13.4l13.5-13.4C473.6,51.7,473.7,51.6,473.9,51.6 M473.9,46.6c-1.5,0-2.9,0.6-4,1.6
			l-13.5,13.4L442.9,75c-1.4,1.4-1.9,3.3-1.6,5.2c0.4,2,1.9,3.8,3.8,4.5l21.9,8.6l19.7,7.7c0.8,0.3,1.6,0.5,2.5,0.5
			c2.2,0,4.3-1.1,5.6-2.9c1.3-1.8,1.5-4.2,0.8-6.3L488,72.7l-8.4-22C478.8,48.3,476.5,46.6,473.9,46.6L473.9,46.6z"/>
	</g>
	<g>
		<path class="st2" d="M435.4,40.5l15,5.9l17.7,7l-10.1,10l-10.1,10l-6.8-17.8L435.4,40.5 M431.5,34.8c-1.2,0-2.1,1.2-1.6,2.4
			l7.5,19.8l8.4,22c0.2,0.5,0.7,0.8,1.1,0.8c0.2,0,0.3-0.1,0.5-0.2l13.5-13.4l13.5-13.4c0.4-0.4,0.1-1.3-0.6-1.6l-21.9-8.6
			l-19.7-7.8C431.9,34.8,431.7,34.8,431.5,34.8L431.5,34.8z"/>
	</g>
</g>
</svg>
