<?xml version="1.0" standalone="no"?>
<!DOCTYPE svg PUBLIC "-//W3C//DTD SVG 20010904//EN"
 "http://www.w3.org/TR/2001/REC-SVG-20010904/DTD/svg10.dtd">
<svg version="1.0" xmlns="http://www.w3.org/2000/svg"
 width="512.000000pt" height="512.000000pt" viewBox="0 0 512.000000 512.000000"
 preserveAspectRatio="xMidYMid meet">
<metadata>
Created by potrace 1.11, written by Peter Selinger 2001-2013
</metadata>
<g transform="translate(0.000000,512.000000) scale(0.100000,-0.100000)"
fill="#000000" stroke="none">
<path d="M2320 4694 c-559 -52 -1012 -255 -1365 -609 -427 -429 -624 -990
-584 -1664 33 -557 220 -992 584 -1357 226 -227 480 -387 770 -487 382 -132
856 -167 1280 -97 144 24 287 61 287 75 -1 5 -24 17 -54 27 -29 10 -62 22 -73
27 -11 6 -72 30 -135 54 -115 44 -117 45 -195 36 -114 -11 -425 -11 -546 2
-562 57 -1058 346 -1368 798 -267 390 -366 918 -275 1461 115 684 636 1247
1326 1434 478 130 1077 84 1497 -115 313 -148 556 -358 747 -644 121 -182 196
-362 248 -595 39 -176 49 -300 43 -535 -4 -174 -9 -234 -32 -346 l-27 -136 57
-144 c69 -173 76 -189 84 -189 8 0 55 125 86 230 112 377 112 924 -1 1311 -91
313 -243 579 -464 813 -327 344 -747 557 -1250 631 -102 16 -540 28 -640 19z"/>
<path d="M1865 3175 c-14 -13 -25 -35 -25 -49 0 -14 25 -90 56 -168 31 -79 96
-246 146 -373 91 -233 147 -377 335 -855 57 -146 135 -346 174 -445 49 -125
79 -187 96 -202 15 -11 94 -47 177 -78 83 -31 201 -76 261 -100 61 -24 175
-68 255 -98 238 -89 444 -167 465 -177 11 -5 81 -32 155 -59 74 -28 182 -69
240 -91 157 -61 228 -89 300 -115 36 -13 101 -37 145 -54 114 -44 151 -39 175
23 11 29 10 31 -165 476 -41 102 -90 228 -110 280 -20 52 -71 181 -112 285
-41 105 -85 217 -98 250 -13 33 -57 146 -98 250 -92 232 -143 362 -169 435
-29 77 -56 102 -156 140 -48 18 -132 51 -187 72 -55 22 -212 83 -350 135 -357
136 -656 250 -755 288 -47 18 -186 71 -310 118 -124 47 -255 97 -293 111 -85
33 -121 33 -152 1z m567 -361 c167 -64 368 -141 448 -171 80 -30 190 -72 245
-93 55 -21 208 -80 340 -130 132 -51 241 -93 243 -95 4 -4 -143 -149 -408
-400 -58 -55 -206 -197 -329 -315 -123 -118 -229 -218 -236 -222 -13 -8 -25
17 -114 247 -50 130 -120 309 -246 630 -131 333 -255 654 -255 660 0 9 1 9
312 -111z"/>
</g>
</svg>
